<mxfile host="www.draw.io" modified="2020-01-27T12:04:40.130Z" agent="Mozilla/5.0 (Windows NT 10.0; Win64; x64) AppleWebKit/537.36 (KHTML, like Gecko) Chrome/79.0.3945.130 Safari/537.36" etag="_W-MOjKwrqXiX_rFF1xD" version="12.5.8" type="github">
  <diagram id="HLfAVQC_sLoz8uyRzaJp" name="Page-1">
    <mxGraphModel dx="1730" dy="885" grid="1" gridSize="10" guides="1" tooltips="1" connect="1" arrows="1" fold="1" page="1" pageScale="1" pageWidth="827" pageHeight="1169" math="0" shadow="0">
      <root>
        <mxCell id="0"/>
        <mxCell id="1" parent="0"/>
        <mxCell id="cO2QtpQZ5ImbLDcUa9ss-1" value="PESSOA" style="rounded=0;whiteSpace=wrap;html=1;" parent="1" vertex="1">
          <mxGeometry x="240" y="158" width="110" height="40" as="geometry"/>
        </mxCell>
        <mxCell id="cO2QtpQZ5ImbLDcUa9ss-2" value="" style="endArrow=none;html=1;" parent="1" edge="1">
          <mxGeometry width="50" height="50" relative="1" as="geometry">
            <mxPoint x="350" y="177.5" as="sourcePoint"/>
            <mxPoint x="480" y="178" as="targetPoint"/>
          </mxGeometry>
        </mxCell>
        <mxCell id="cO2QtpQZ5ImbLDcUa9ss-3" value="POSSUI" style="rhombus;whiteSpace=wrap;html=1;" parent="1" vertex="1">
          <mxGeometry x="480" y="138" width="80" height="80" as="geometry"/>
        </mxCell>
        <mxCell id="cO2QtpQZ5ImbLDcUa9ss-5" value="CNH" style="rounded=0;whiteSpace=wrap;html=1;" parent="1" vertex="1">
          <mxGeometry x="690" y="158" width="110" height="40" as="geometry"/>
        </mxCell>
        <mxCell id="cO2QtpQZ5ImbLDcUa9ss-6" value="" style="endArrow=none;html=1;" parent="1" edge="1">
          <mxGeometry width="50" height="50" relative="1" as="geometry">
            <mxPoint x="560" y="177.5" as="sourcePoint"/>
            <mxPoint x="690" y="178" as="targetPoint"/>
          </mxGeometry>
        </mxCell>
        <mxCell id="cO2QtpQZ5ImbLDcUa9ss-7" value="" style="endArrow=none;html=1;" parent="1" edge="1">
          <mxGeometry width="50" height="50" relative="1" as="geometry">
            <mxPoint x="294.5" y="278" as="sourcePoint"/>
            <mxPoint x="294.5" y="198" as="targetPoint"/>
          </mxGeometry>
        </mxCell>
        <mxCell id="cO2QtpQZ5ImbLDcUa9ss-8" value="" style="endArrow=none;html=1;entryX=0;entryY=0.5;entryDx=0;entryDy=0;" parent="1" target="cO2QtpQZ5ImbLDcUa9ss-9" edge="1">
          <mxGeometry width="50" height="50" relative="1" as="geometry">
            <mxPoint x="290" y="278" as="sourcePoint"/>
            <mxPoint x="370" y="278" as="targetPoint"/>
          </mxGeometry>
        </mxCell>
        <mxCell id="cO2QtpQZ5ImbLDcUa9ss-9" value="TEM" style="rhombus;whiteSpace=wrap;html=1;" parent="1" vertex="1">
          <mxGeometry x="480" y="238" width="80" height="80" as="geometry"/>
        </mxCell>
        <mxCell id="cO2QtpQZ5ImbLDcUa9ss-12" value="" style="endArrow=none;html=1;entryX=0;entryY=0.5;entryDx=0;entryDy=0;" parent="1" source="cO2QtpQZ5ImbLDcUa9ss-11" edge="1">
          <mxGeometry width="50" height="50" relative="1" as="geometry">
            <mxPoint x="560" y="277.5" as="sourcePoint"/>
            <mxPoint x="750" y="277.5" as="targetPoint"/>
            <Array as="points">
              <mxPoint x="660" y="277.5"/>
            </Array>
          </mxGeometry>
        </mxCell>
        <mxCell id="cO2QtpQZ5ImbLDcUa9ss-11" value="TELEFONE" style="rounded=0;whiteSpace=wrap;html=1;" parent="1" vertex="1">
          <mxGeometry x="690" y="258" width="110" height="40" as="geometry"/>
        </mxCell>
        <mxCell id="cO2QtpQZ5ImbLDcUa9ss-13" value="" style="endArrow=none;html=1;entryX=0;entryY=0.5;entryDx=0;entryDy=0;" parent="1" target="cO2QtpQZ5ImbLDcUa9ss-11" edge="1">
          <mxGeometry width="50" height="50" relative="1" as="geometry">
            <mxPoint x="560" y="277.5" as="sourcePoint"/>
            <mxPoint x="750" y="277.5" as="targetPoint"/>
            <Array as="points"/>
          </mxGeometry>
        </mxCell>
        <mxCell id="cO2QtpQZ5ImbLDcUa9ss-14" value="" style="endArrow=none;html=1;" parent="1" edge="1">
          <mxGeometry width="50" height="50" relative="1" as="geometry">
            <mxPoint x="294.5" y="158" as="sourcePoint"/>
            <mxPoint x="294.5" y="88" as="targetPoint"/>
          </mxGeometry>
        </mxCell>
        <mxCell id="cO2QtpQZ5ImbLDcUa9ss-15" value="" style="endArrow=none;html=1;entryX=0;entryY=0.5;entryDx=0;entryDy=0;" parent="1" target="cO2QtpQZ5ImbLDcUa9ss-16" edge="1">
          <mxGeometry width="50" height="50" relative="1" as="geometry">
            <mxPoint x="298" y="90" as="sourcePoint"/>
            <mxPoint x="448" y="90" as="targetPoint"/>
          </mxGeometry>
        </mxCell>
        <mxCell id="cO2QtpQZ5ImbLDcUa9ss-16" value="TEM" style="rhombus;whiteSpace=wrap;html=1;" parent="1" vertex="1">
          <mxGeometry x="480" y="50" width="80" height="80" as="geometry"/>
        </mxCell>
        <mxCell id="cO2QtpQZ5ImbLDcUa9ss-17" value="" style="endArrow=none;html=1;" parent="1" edge="1">
          <mxGeometry width="50" height="50" relative="1" as="geometry">
            <mxPoint x="560" y="89.5" as="sourcePoint"/>
            <mxPoint x="690" y="90" as="targetPoint"/>
          </mxGeometry>
        </mxCell>
        <mxCell id="cO2QtpQZ5ImbLDcUa9ss-18" value="EMAIL" style="rounded=0;whiteSpace=wrap;html=1;" parent="1" vertex="1">
          <mxGeometry x="690" y="70" width="110" height="40" as="geometry"/>
        </mxCell>
        <mxCell id="cO2QtpQZ5ImbLDcUa9ss-20" value="CLINICA" style="rounded=0;whiteSpace=wrap;html=1;" parent="1" vertex="1">
          <mxGeometry x="240" y="733" width="110" height="40" as="geometry"/>
        </mxCell>
        <mxCell id="cO2QtpQZ5ImbLDcUa9ss-21" value="TEM" style="rhombus;whiteSpace=wrap;html=1;" parent="1" vertex="1">
          <mxGeometry x="450" y="713" width="80" height="80" as="geometry"/>
        </mxCell>
        <mxCell id="cO2QtpQZ5ImbLDcUa9ss-22" value="PET" style="rounded=0;whiteSpace=wrap;html=1;" parent="1" vertex="1">
          <mxGeometry x="622" y="733" width="110" height="40" as="geometry"/>
        </mxCell>
        <mxCell id="cO2QtpQZ5ImbLDcUa9ss-23" value="RAÃ‡A" style="rounded=0;whiteSpace=wrap;html=1;" parent="1" vertex="1">
          <mxGeometry x="622" y="519" width="110" height="40" as="geometry"/>
        </mxCell>
        <mxCell id="cO2QtpQZ5ImbLDcUa9ss-24" value="DONOS" style="rounded=0;whiteSpace=wrap;html=1;" parent="1" vertex="1">
          <mxGeometry x="622" y="1009" width="110" height="40" as="geometry"/>
        </mxCell>
        <mxCell id="cO2QtpQZ5ImbLDcUa9ss-26" value="VETERINARIO" style="rounded=0;whiteSpace=wrap;html=1;" parent="1" vertex="1">
          <mxGeometry x="1020" y="733" width="110" height="40" as="geometry"/>
        </mxCell>
        <mxCell id="cO2QtpQZ5ImbLDcUa9ss-27" value="CONTEM" style="rhombus;whiteSpace=wrap;html=1;" parent="1" vertex="1">
          <mxGeometry x="830" y="713" width="80" height="80" as="geometry"/>
        </mxCell>
        <mxCell id="cO2QtpQZ5ImbLDcUa9ss-28" value="POSSUI" style="rhombus;whiteSpace=wrap;html=1;" parent="1" vertex="1">
          <mxGeometry x="637" y="859" width="80" height="80" as="geometry"/>
        </mxCell>
        <mxCell id="cO2QtpQZ5ImbLDcUa9ss-29" value="TEM" style="rhombus;whiteSpace=wrap;html=1;" parent="1" vertex="1">
          <mxGeometry x="637" y="599" width="80" height="80" as="geometry"/>
        </mxCell>
        <mxCell id="cO2QtpQZ5ImbLDcUa9ss-30" value="" style="endArrow=none;html=1;entryX=0;entryY=0.5;entryDx=0;entryDy=0;" parent="1" target="cO2QtpQZ5ImbLDcUa9ss-21" edge="1">
          <mxGeometry width="50" height="50" relative="1" as="geometry">
            <mxPoint x="350" y="752.5" as="sourcePoint"/>
            <mxPoint x="420" y="752.5" as="targetPoint"/>
          </mxGeometry>
        </mxCell>
        <mxCell id="cO2QtpQZ5ImbLDcUa9ss-34" value="" style="endArrow=none;html=1;" parent="1" edge="1">
          <mxGeometry width="50" height="50" relative="1" as="geometry">
            <mxPoint x="530" y="753" as="sourcePoint"/>
            <mxPoint x="620" y="753" as="targetPoint"/>
          </mxGeometry>
        </mxCell>
        <mxCell id="cO2QtpQZ5ImbLDcUa9ss-35" value="" style="endArrow=none;html=1;entryX=0;entryY=0.5;entryDx=0;entryDy=0;" parent="1" target="cO2QtpQZ5ImbLDcUa9ss-27" edge="1">
          <mxGeometry width="50" height="50" relative="1" as="geometry">
            <mxPoint x="732" y="752.5" as="sourcePoint"/>
            <mxPoint x="812" y="752.5" as="targetPoint"/>
          </mxGeometry>
        </mxCell>
        <mxCell id="cO2QtpQZ5ImbLDcUa9ss-36" value="" style="endArrow=none;html=1;exitX=1;exitY=0.5;exitDx=0;exitDy=0;entryX=0;entryY=0.5;entryDx=0;entryDy=0;" parent="1" source="cO2QtpQZ5ImbLDcUa9ss-27" target="cO2QtpQZ5ImbLDcUa9ss-26" edge="1">
          <mxGeometry width="50" height="50" relative="1" as="geometry">
            <mxPoint x="920" y="749" as="sourcePoint"/>
            <mxPoint x="970" y="699" as="targetPoint"/>
          </mxGeometry>
        </mxCell>
        <mxCell id="cO2QtpQZ5ImbLDcUa9ss-37" value="" style="endArrow=none;html=1;exitX=0.5;exitY=0;exitDx=0;exitDy=0;entryX=0.5;entryY=1;entryDx=0;entryDy=0;" parent="1" source="cO2QtpQZ5ImbLDcUa9ss-28" target="cO2QtpQZ5ImbLDcUa9ss-22" edge="1">
          <mxGeometry width="50" height="50" relative="1" as="geometry">
            <mxPoint x="630" y="823" as="sourcePoint"/>
            <mxPoint x="680" y="773" as="targetPoint"/>
          </mxGeometry>
        </mxCell>
        <mxCell id="cO2QtpQZ5ImbLDcUa9ss-38" value="" style="endArrow=none;html=1;entryX=0.5;entryY=1;entryDx=0;entryDy=0;exitX=0.5;exitY=0;exitDx=0;exitDy=0;" parent="1" source="cO2QtpQZ5ImbLDcUa9ss-24" target="cO2QtpQZ5ImbLDcUa9ss-28" edge="1">
          <mxGeometry width="50" height="50" relative="1" as="geometry">
            <mxPoint x="610" y="999" as="sourcePoint"/>
            <mxPoint x="660" y="949" as="targetPoint"/>
          </mxGeometry>
        </mxCell>
        <mxCell id="cO2QtpQZ5ImbLDcUa9ss-39" value="" style="endArrow=none;html=1;entryX=0.5;entryY=0;entryDx=0;entryDy=0;exitX=0.5;exitY=1;exitDx=0;exitDy=0;" parent="1" source="cO2QtpQZ5ImbLDcUa9ss-23" target="cO2QtpQZ5ImbLDcUa9ss-29" edge="1">
          <mxGeometry width="50" height="50" relative="1" as="geometry">
            <mxPoint x="600" y="639" as="sourcePoint"/>
            <mxPoint x="650" y="589" as="targetPoint"/>
          </mxGeometry>
        </mxCell>
        <mxCell id="cO2QtpQZ5ImbLDcUa9ss-40" value="" style="endArrow=none;html=1;entryX=0.5;entryY=1;entryDx=0;entryDy=0;exitX=0.5;exitY=0;exitDx=0;exitDy=0;" parent="1" source="cO2QtpQZ5ImbLDcUa9ss-22" target="cO2QtpQZ5ImbLDcUa9ss-29" edge="1">
          <mxGeometry width="50" height="50" relative="1" as="geometry">
            <mxPoint x="610" y="733" as="sourcePoint"/>
            <mxPoint x="660" y="683" as="targetPoint"/>
          </mxGeometry>
        </mxCell>
        <mxCell id="cO2QtpQZ5ImbLDcUa9ss-42" value="1" style="text;html=1;strokeColor=none;fillColor=none;align=center;verticalAlign=middle;whiteSpace=wrap;rounded=0;" parent="1" vertex="1">
          <mxGeometry x="248" y="130" width="40" height="20" as="geometry"/>
        </mxCell>
        <mxCell id="cO2QtpQZ5ImbLDcUa9ss-43" value="1" style="text;html=1;strokeColor=none;fillColor=none;align=center;verticalAlign=middle;whiteSpace=wrap;rounded=0;" parent="1" vertex="1">
          <mxGeometry x="358" y="150" width="40" height="20" as="geometry"/>
        </mxCell>
        <mxCell id="cO2QtpQZ5ImbLDcUa9ss-44" value="1" style="text;html=1;strokeColor=none;fillColor=none;align=center;verticalAlign=middle;whiteSpace=wrap;rounded=0;" parent="1" vertex="1">
          <mxGeometry x="248" y="210" width="40" height="20" as="geometry"/>
        </mxCell>
        <mxCell id="cO2QtpQZ5ImbLDcUa9ss-45" value="N" style="text;html=1;strokeColor=none;fillColor=none;align=center;verticalAlign=middle;whiteSpace=wrap;rounded=0;" parent="1" vertex="1">
          <mxGeometry x="638" y="60" width="40" height="20" as="geometry"/>
        </mxCell>
        <mxCell id="cO2QtpQZ5ImbLDcUa9ss-46" value="1" style="text;html=1;strokeColor=none;fillColor=none;align=center;verticalAlign=middle;whiteSpace=wrap;rounded=0;" parent="1" vertex="1">
          <mxGeometry x="638" y="150" width="40" height="20" as="geometry"/>
        </mxCell>
        <mxCell id="cO2QtpQZ5ImbLDcUa9ss-47" value="N" style="text;html=1;strokeColor=none;fillColor=none;align=center;verticalAlign=middle;whiteSpace=wrap;rounded=0;" parent="1" vertex="1">
          <mxGeometry x="638" y="250" width="40" height="20" as="geometry"/>
        </mxCell>
        <mxCell id="cO2QtpQZ5ImbLDcUa9ss-48" value="N" style="text;html=1;strokeColor=none;fillColor=none;align=center;verticalAlign=middle;whiteSpace=wrap;rounded=0;" parent="1" vertex="1">
          <mxGeometry x="677" y="569" width="40" height="20" as="geometry"/>
        </mxCell>
        <mxCell id="cO2QtpQZ5ImbLDcUa9ss-49" value="N" style="text;html=1;strokeColor=none;fillColor=none;align=center;verticalAlign=middle;whiteSpace=wrap;rounded=0;" parent="1" vertex="1">
          <mxGeometry x="677" y="709" width="40" height="20" as="geometry"/>
        </mxCell>
        <mxCell id="cO2QtpQZ5ImbLDcUa9ss-50" value="1" style="text;html=1;strokeColor=none;fillColor=none;align=center;verticalAlign=middle;whiteSpace=wrap;rounded=0;" parent="1" vertex="1">
          <mxGeometry x="967" y="729" width="40" height="20" as="geometry"/>
        </mxCell>
        <mxCell id="cO2QtpQZ5ImbLDcUa9ss-51" value="N" style="text;html=1;strokeColor=none;fillColor=none;align=center;verticalAlign=middle;whiteSpace=wrap;rounded=0;" parent="1" vertex="1">
          <mxGeometry x="690" y="779" width="40" height="20" as="geometry"/>
        </mxCell>
        <mxCell id="cO2QtpQZ5ImbLDcUa9ss-52" value="N" style="text;html=1;strokeColor=none;fillColor=none;align=center;verticalAlign=middle;whiteSpace=wrap;rounded=0;" parent="1" vertex="1">
          <mxGeometry x="690" y="979" width="40" height="20" as="geometry"/>
        </mxCell>
        <mxCell id="cO2QtpQZ5ImbLDcUa9ss-53" value="1" style="text;html=1;strokeColor=none;fillColor=none;align=center;verticalAlign=middle;whiteSpace=wrap;rounded=0;" parent="1" vertex="1">
          <mxGeometry x="360" y="719" width="40" height="20" as="geometry"/>
        </mxCell>
        <mxCell id="cO2QtpQZ5ImbLDcUa9ss-54" value="N" style="text;html=1;strokeColor=none;fillColor=none;align=center;verticalAlign=middle;whiteSpace=wrap;rounded=0;" parent="1" vertex="1">
          <mxGeometry x="573" y="719" width="40" height="20" as="geometry"/>
        </mxCell>
        <mxCell id="cO2QtpQZ5ImbLDcUa9ss-55" value="N" style="text;html=1;strokeColor=none;fillColor=none;align=center;verticalAlign=middle;whiteSpace=wrap;rounded=0;" parent="1" vertex="1">
          <mxGeometry x="740" y="729" width="40" height="20" as="geometry"/>
        </mxCell>
        <mxCell id="cO2QtpQZ5ImbLDcUa9ss-57" value="OPTMUS" style="rounded=0;whiteSpace=wrap;html=1;" parent="1" vertex="1">
          <mxGeometry x="140" y="1549" width="110" height="40" as="geometry"/>
        </mxCell>
        <mxCell id="cO2QtpQZ5ImbLDcUa9ss-58" value="ARTISTAS" style="rounded=0;whiteSpace=wrap;html=1;" parent="1" vertex="1">
          <mxGeometry x="565" y="1549" width="110" height="40" as="geometry"/>
        </mxCell>
        <mxCell id="cO2QtpQZ5ImbLDcUa9ss-59" value="TEM" style="rhombus;whiteSpace=wrap;html=1;" parent="1" vertex="1">
          <mxGeometry x="370" y="1529" width="80" height="80" as="geometry"/>
        </mxCell>
        <mxCell id="cO2QtpQZ5ImbLDcUa9ss-60" value="POSSUEM" style="rhombus;whiteSpace=wrap;html=1;fontStyle=1" parent="1" vertex="1">
          <mxGeometry x="787" y="1529" width="80" height="80" as="geometry"/>
        </mxCell>
        <mxCell id="cO2QtpQZ5ImbLDcUa9ss-62" value="CDS" style="rounded=0;whiteSpace=wrap;html=1;" parent="1" vertex="1">
          <mxGeometry x="1000" y="1549" width="110" height="40" as="geometry"/>
        </mxCell>
        <mxCell id="cO2QtpQZ5ImbLDcUa9ss-66" value="ALBUM" style="rounded=0;whiteSpace=wrap;html=1;" parent="1" vertex="1">
          <mxGeometry x="1000" y="1279" width="110" height="40" as="geometry"/>
        </mxCell>
        <mxCell id="cO2QtpQZ5ImbLDcUa9ss-67" value="CONTEM" style="rhombus;whiteSpace=wrap;html=1;fontStyle=1" parent="1" vertex="1">
          <mxGeometry x="1015" y="1389" width="80" height="80" as="geometry"/>
        </mxCell>
        <mxCell id="cO2QtpQZ5ImbLDcUa9ss-68" value="ESTILO MUSICAL" style="rounded=0;whiteSpace=wrap;html=1;" parent="1" vertex="1">
          <mxGeometry x="1000" y="1019" width="110" height="40" as="geometry"/>
        </mxCell>
        <mxCell id="cO2QtpQZ5ImbLDcUa9ss-69" value="POSSUI" style="rhombus;whiteSpace=wrap;html=1;" parent="1" vertex="1">
          <mxGeometry x="1015" y="1119" width="80" height="80" as="geometry"/>
        </mxCell>
        <mxCell id="cO2QtpQZ5ImbLDcUa9ss-70" value="" style="endArrow=none;html=1;entryX=0.5;entryY=1;entryDx=0;entryDy=0;exitX=0.5;exitY=0;exitDx=0;exitDy=0;" parent="1" source="cO2QtpQZ5ImbLDcUa9ss-66" target="cO2QtpQZ5ImbLDcUa9ss-69" edge="1">
          <mxGeometry width="50" height="50" relative="1" as="geometry">
            <mxPoint x="930" y="1074" as="sourcePoint"/>
            <mxPoint x="1055" y="1199" as="targetPoint"/>
          </mxGeometry>
        </mxCell>
        <mxCell id="cO2QtpQZ5ImbLDcUa9ss-72" value="" style="endArrow=none;html=1;entryX=0.5;entryY=1;entryDx=0;entryDy=0;exitX=0.5;exitY=0;exitDx=0;exitDy=0;" parent="1" source="cO2QtpQZ5ImbLDcUa9ss-69" target="cO2QtpQZ5ImbLDcUa9ss-68" edge="1">
          <mxGeometry width="50" height="50" relative="1" as="geometry">
            <mxPoint x="780" y="1119" as="sourcePoint"/>
            <mxPoint x="830" y="1069" as="targetPoint"/>
          </mxGeometry>
        </mxCell>
        <mxCell id="cO2QtpQZ5ImbLDcUa9ss-73" value="" style="endArrow=none;html=1;entryX=0.5;entryY=1;entryDx=0;entryDy=0;exitX=0.5;exitY=0;exitDx=0;exitDy=0;" parent="1" source="cO2QtpQZ5ImbLDcUa9ss-67" target="cO2QtpQZ5ImbLDcUa9ss-66" edge="1">
          <mxGeometry width="50" height="50" relative="1" as="geometry">
            <mxPoint x="1000" y="1389" as="sourcePoint"/>
            <mxPoint x="1050" y="1339" as="targetPoint"/>
          </mxGeometry>
        </mxCell>
        <mxCell id="cO2QtpQZ5ImbLDcUa9ss-74" value="" style="endArrow=none;html=1;entryX=0.5;entryY=1;entryDx=0;entryDy=0;exitX=0.5;exitY=0;exitDx=0;exitDy=0;" parent="1" source="cO2QtpQZ5ImbLDcUa9ss-62" target="cO2QtpQZ5ImbLDcUa9ss-67" edge="1">
          <mxGeometry width="50" height="50" relative="1" as="geometry">
            <mxPoint x="950" y="1539" as="sourcePoint"/>
            <mxPoint x="1000" y="1489" as="targetPoint"/>
          </mxGeometry>
        </mxCell>
        <mxCell id="cO2QtpQZ5ImbLDcUa9ss-75" value="" style="endArrow=none;html=1;entryX=0;entryY=0.5;entryDx=0;entryDy=0;exitX=1;exitY=0.5;exitDx=0;exitDy=0;" parent="1" source="cO2QtpQZ5ImbLDcUa9ss-60" target="cO2QtpQZ5ImbLDcUa9ss-62" edge="1">
          <mxGeometry width="50" height="50" relative="1" as="geometry">
            <mxPoint x="860" y="1549" as="sourcePoint"/>
            <mxPoint x="910" y="1499" as="targetPoint"/>
          </mxGeometry>
        </mxCell>
        <mxCell id="cO2QtpQZ5ImbLDcUa9ss-78" value="" style="endArrow=none;html=1;entryX=0;entryY=0.5;entryDx=0;entryDy=0;exitX=1;exitY=0.5;exitDx=0;exitDy=0;" parent="1" source="cO2QtpQZ5ImbLDcUa9ss-58" target="cO2QtpQZ5ImbLDcUa9ss-60" edge="1">
          <mxGeometry width="50" height="50" relative="1" as="geometry">
            <mxPoint x="712" y="1629" as="sourcePoint"/>
            <mxPoint x="762" y="1579" as="targetPoint"/>
          </mxGeometry>
        </mxCell>
        <mxCell id="cO2QtpQZ5ImbLDcUa9ss-80" value="" style="endArrow=none;html=1;entryX=0;entryY=0.5;entryDx=0;entryDy=0;exitX=1;exitY=0.5;exitDx=0;exitDy=0;" parent="1" source="cO2QtpQZ5ImbLDcUa9ss-59" target="cO2QtpQZ5ImbLDcUa9ss-58" edge="1">
          <mxGeometry width="50" height="50" relative="1" as="geometry">
            <mxPoint x="423" y="1669" as="sourcePoint"/>
            <mxPoint x="473" y="1619" as="targetPoint"/>
          </mxGeometry>
        </mxCell>
        <mxCell id="cO2QtpQZ5ImbLDcUa9ss-81" value="" style="endArrow=none;html=1;entryX=0;entryY=0.5;entryDx=0;entryDy=0;exitX=1;exitY=0.5;exitDx=0;exitDy=0;" parent="1" source="cO2QtpQZ5ImbLDcUa9ss-57" target="cO2QtpQZ5ImbLDcUa9ss-59" edge="1">
          <mxGeometry width="50" height="50" relative="1" as="geometry">
            <mxPoint x="210" y="1699" as="sourcePoint"/>
            <mxPoint x="260" y="1649" as="targetPoint"/>
          </mxGeometry>
        </mxCell>
        <mxCell id="cO2QtpQZ5ImbLDcUa9ss-82" value="PLATAFORMA" style="rounded=0;whiteSpace=wrap;html=1;" parent="1" vertex="1">
          <mxGeometry x="140" y="1789" width="110" height="40" as="geometry"/>
        </mxCell>
        <mxCell id="cO2QtpQZ5ImbLDcUa9ss-83" value="TEM" style="rhombus;whiteSpace=wrap;html=1;" parent="1" vertex="1">
          <mxGeometry x="155" y="1649" width="80" height="80" as="geometry"/>
        </mxCell>
        <mxCell id="cO2QtpQZ5ImbLDcUa9ss-84" value="USUARIO" style="rounded=0;whiteSpace=wrap;html=1;" parent="1" vertex="1">
          <mxGeometry x="565" y="1789" width="110" height="40" as="geometry"/>
        </mxCell>
        <mxCell id="cO2QtpQZ5ImbLDcUa9ss-85" value="POSSUI" style="rhombus;whiteSpace=wrap;html=1;" parent="1" vertex="1">
          <mxGeometry x="370" y="1769" width="80" height="80" as="geometry"/>
        </mxCell>
        <mxCell id="cO2QtpQZ5ImbLDcUa9ss-86" value="" style="endArrow=none;html=1;entryX=0;entryY=0.5;entryDx=0;entryDy=0;exitX=1;exitY=0.5;exitDx=0;exitDy=0;" parent="1" source="cO2QtpQZ5ImbLDcUa9ss-82" target="cO2QtpQZ5ImbLDcUa9ss-85" edge="1">
          <mxGeometry width="50" height="50" relative="1" as="geometry">
            <mxPoint x="250" y="1909" as="sourcePoint"/>
            <mxPoint x="300" y="1859" as="targetPoint"/>
          </mxGeometry>
        </mxCell>
        <mxCell id="cO2QtpQZ5ImbLDcUa9ss-87" value="" style="endArrow=none;html=1;entryX=0;entryY=0.5;entryDx=0;entryDy=0;exitX=1;exitY=0.5;exitDx=0;exitDy=0;" parent="1" source="cO2QtpQZ5ImbLDcUa9ss-85" target="cO2QtpQZ5ImbLDcUa9ss-84" edge="1">
          <mxGeometry width="50" height="50" relative="1" as="geometry">
            <mxPoint x="460" y="1939" as="sourcePoint"/>
            <mxPoint x="510" y="1889" as="targetPoint"/>
          </mxGeometry>
        </mxCell>
        <mxCell id="cO2QtpQZ5ImbLDcUa9ss-88" value="" style="endArrow=none;html=1;entryX=0.5;entryY=1;entryDx=0;entryDy=0;exitX=0.5;exitY=0;exitDx=0;exitDy=0;" parent="1" source="cO2QtpQZ5ImbLDcUa9ss-83" target="cO2QtpQZ5ImbLDcUa9ss-57" edge="1">
          <mxGeometry width="50" height="50" relative="1" as="geometry">
            <mxPoint x="380" y="1729" as="sourcePoint"/>
            <mxPoint x="430" y="1679" as="targetPoint"/>
          </mxGeometry>
        </mxCell>
        <mxCell id="cO2QtpQZ5ImbLDcUa9ss-89" value="" style="endArrow=none;html=1;entryX=0.5;entryY=1;entryDx=0;entryDy=0;exitX=0.5;exitY=0;exitDx=0;exitDy=0;" parent="1" source="cO2QtpQZ5ImbLDcUa9ss-82" target="cO2QtpQZ5ImbLDcUa9ss-83" edge="1">
          <mxGeometry width="50" height="50" relative="1" as="geometry">
            <mxPoint x="320" y="1769" as="sourcePoint"/>
            <mxPoint x="370" y="1719" as="targetPoint"/>
          </mxGeometry>
        </mxCell>
        <mxCell id="cO2QtpQZ5ImbLDcUa9ss-90" value="N" style="text;html=1;strokeColor=none;fillColor=none;align=center;verticalAlign=middle;whiteSpace=wrap;rounded=0;" parent="1" vertex="1">
          <mxGeometry x="955" y="1538" width="40" height="20" as="geometry"/>
        </mxCell>
        <mxCell id="cO2QtpQZ5ImbLDcUa9ss-91" value="1" style="text;html=1;strokeColor=none;fillColor=none;align=center;verticalAlign=middle;whiteSpace=wrap;rounded=0;" parent="1" vertex="1">
          <mxGeometry x="680" y="1538" width="40" height="20" as="geometry"/>
        </mxCell>
        <mxCell id="cO2QtpQZ5ImbLDcUa9ss-93" value="N" style="text;html=1;strokeColor=none;fillColor=none;align=center;verticalAlign=middle;whiteSpace=wrap;rounded=0;" parent="1" vertex="1">
          <mxGeometry x="1060" y="1329" width="40" height="20" as="geometry"/>
        </mxCell>
        <mxCell id="cO2QtpQZ5ImbLDcUa9ss-94" value="N" style="text;html=1;strokeColor=none;fillColor=none;align=center;verticalAlign=middle;whiteSpace=wrap;rounded=0;" parent="1" vertex="1">
          <mxGeometry x="1060" y="1518" width="40" height="20" as="geometry"/>
        </mxCell>
        <mxCell id="cO2QtpQZ5ImbLDcUa9ss-95" value="N" style="text;html=1;strokeColor=none;fillColor=none;align=center;verticalAlign=middle;whiteSpace=wrap;rounded=0;" parent="1" vertex="1">
          <mxGeometry x="1070" y="1249" width="40" height="20" as="geometry"/>
        </mxCell>
        <mxCell id="cO2QtpQZ5ImbLDcUa9ss-96" value="N" style="text;html=1;strokeColor=none;fillColor=none;align=center;verticalAlign=middle;whiteSpace=wrap;rounded=0;" parent="1" vertex="1">
          <mxGeometry x="1060" y="1069" width="40" height="20" as="geometry"/>
        </mxCell>
        <mxCell id="cO2QtpQZ5ImbLDcUa9ss-97" value="N" style="text;html=1;strokeColor=none;fillColor=none;align=center;verticalAlign=middle;whiteSpace=wrap;rounded=0;" parent="1" vertex="1">
          <mxGeometry x="522" y="1538" width="40" height="20" as="geometry"/>
        </mxCell>
        <mxCell id="cO2QtpQZ5ImbLDcUa9ss-98" value="1" style="text;html=1;strokeColor=none;fillColor=none;align=center;verticalAlign=middle;whiteSpace=wrap;rounded=0;" parent="1" vertex="1">
          <mxGeometry x="260" y="1538" width="40" height="20" as="geometry"/>
        </mxCell>
        <mxCell id="cO2QtpQZ5ImbLDcUa9ss-99" value="1" style="text;html=1;strokeColor=none;fillColor=none;align=center;verticalAlign=middle;whiteSpace=wrap;rounded=0;" parent="1" vertex="1">
          <mxGeometry x="202" y="1599" width="40" height="20" as="geometry"/>
        </mxCell>
        <mxCell id="cO2QtpQZ5ImbLDcUa9ss-100" value="1" style="text;html=1;strokeColor=none;fillColor=none;align=center;verticalAlign=middle;whiteSpace=wrap;rounded=0;" parent="1" vertex="1">
          <mxGeometry x="202" y="1759" width="40" height="20" as="geometry"/>
        </mxCell>
        <mxCell id="cO2QtpQZ5ImbLDcUa9ss-101" value="1" style="text;html=1;strokeColor=none;fillColor=none;align=center;verticalAlign=middle;whiteSpace=wrap;rounded=0;" parent="1" vertex="1">
          <mxGeometry x="260" y="1789" width="40" height="20" as="geometry"/>
        </mxCell>
        <mxCell id="cO2QtpQZ5ImbLDcUa9ss-102" value="N" style="text;html=1;strokeColor=none;fillColor=none;align=center;verticalAlign=middle;whiteSpace=wrap;rounded=0;" parent="1" vertex="1">
          <mxGeometry x="517" y="1787" width="40" height="20" as="geometry"/>
        </mxCell>
        <mxCell id="cO2QtpQZ5ImbLDcUa9ss-103" value="1" style="ellipse;whiteSpace=wrap;html=1;aspect=fixed;" parent="1" vertex="1">
          <mxGeometry x="84" y="42" width="38" height="38" as="geometry"/>
        </mxCell>
        <mxCell id="cO2QtpQZ5ImbLDcUa9ss-104" value="2" style="ellipse;whiteSpace=wrap;html=1;aspect=fixed;" parent="1" vertex="1">
          <mxGeometry x="84" y="520" width="38" height="38" as="geometry"/>
        </mxCell>
        <mxCell id="cO2QtpQZ5ImbLDcUa9ss-105" value="3" style="ellipse;whiteSpace=wrap;html=1;aspect=fixed;" parent="1" vertex="1">
          <mxGeometry x="114" y="1269" width="38" height="38" as="geometry"/>
        </mxCell>
        <mxCell id="cO2QtpQZ5ImbLDcUa9ss-106" value="PESSOA" style="rounded=0;whiteSpace=wrap;html=1;" parent="1" vertex="1">
          <mxGeometry x="900" y="60" width="120" height="40" as="geometry"/>
        </mxCell>
        <mxCell id="cO2QtpQZ5ImbLDcUa9ss-107" value="ID_PESSOA&lt;br&gt;NOME&lt;br&gt;IDADE&lt;br&gt;GÃŠNERO&lt;br&gt;ALTURA&lt;br&gt;ETNIA&lt;br&gt;*ID_EMAIL&lt;br&gt;*ID_TELEFONE" style="rounded=0;whiteSpace=wrap;html=1;" parent="1" vertex="1">
          <mxGeometry x="900" y="100" width="120" height="130" as="geometry"/>
        </mxCell>
        <mxCell id="cO2QtpQZ5ImbLDcUa9ss-108" value="EMAIL" style="rounded=0;whiteSpace=wrap;html=1;" parent="1" vertex="1">
          <mxGeometry x="1130" y="60" width="120" height="40" as="geometry"/>
        </mxCell>
        <mxCell id="cO2QtpQZ5ImbLDcUa9ss-109" value="ID_EMAIL&lt;br&gt;" style="rounded=0;whiteSpace=wrap;html=1;" parent="1" vertex="1">
          <mxGeometry x="1130" y="100" width="120" height="130" as="geometry"/>
        </mxCell>
        <mxCell id="cO2QtpQZ5ImbLDcUa9ss-110" value="TELEFONE" style="rounded=0;whiteSpace=wrap;html=1;" parent="1" vertex="1">
          <mxGeometry x="1360" y="60" width="120" height="40" as="geometry"/>
        </mxCell>
        <mxCell id="cO2QtpQZ5ImbLDcUa9ss-111" value="ID_TELEFONE&lt;br&gt;TIPO&lt;br&gt;NUMERO" style="rounded=0;whiteSpace=wrap;html=1;" parent="1" vertex="1">
          <mxGeometry x="1360" y="100" width="120" height="130" as="geometry"/>
        </mxCell>
        <mxCell id="cO2QtpQZ5ImbLDcUa9ss-112" value="" style="endArrow=none;html=1;entryX=0;entryY=0.5;entryDx=0;entryDy=0;exitX=1;exitY=0.5;exitDx=0;exitDy=0;" parent="1" source="cO2QtpQZ5ImbLDcUa9ss-107" target="cO2QtpQZ5ImbLDcUa9ss-109" edge="1">
          <mxGeometry width="50" height="50" relative="1" as="geometry">
            <mxPoint x="1060" y="202.82000000000005" as="sourcePoint"/>
            <mxPoint x="1110" y="152.82000000000005" as="targetPoint"/>
          </mxGeometry>
        </mxCell>
        <mxCell id="cO2QtpQZ5ImbLDcUa9ss-113" value="" style="endArrow=none;html=1;entryX=0;entryY=0.5;entryDx=0;entryDy=0;exitX=1;exitY=0.5;exitDx=0;exitDy=0;" parent="1" source="cO2QtpQZ5ImbLDcUa9ss-109" target="cO2QtpQZ5ImbLDcUa9ss-111" edge="1">
          <mxGeometry width="50" height="50" relative="1" as="geometry">
            <mxPoint x="1250" y="277.40999999999997" as="sourcePoint"/>
            <mxPoint x="1360" y="277.40999999999997" as="targetPoint"/>
            <Array as="points"/>
          </mxGeometry>
        </mxCell>
        <mxCell id="cO2QtpQZ5ImbLDcUa9ss-114" value="CLINICA" style="rounded=0;whiteSpace=wrap;html=1;" parent="1" vertex="1">
          <mxGeometry x="930" y="499" width="120" height="40" as="geometry"/>
        </mxCell>
        <mxCell id="cO2QtpQZ5ImbLDcUa9ss-115" value="ID_CLINICA&lt;br&gt;CNPJ&lt;br&gt;TELEFONE&lt;br&gt;NOMECLINICA&lt;br&gt;ENDEREÃ‡O&lt;br&gt;*ID_PET" style="rounded=0;whiteSpace=wrap;html=1;" parent="1" vertex="1">
          <mxGeometry x="930" y="539" width="120" height="130" as="geometry"/>
        </mxCell>
        <mxCell id="cO2QtpQZ5ImbLDcUa9ss-116" value="PET" style="rounded=0;whiteSpace=wrap;html=1;" parent="1" vertex="1">
          <mxGeometry x="1140" y="499" width="120" height="40" as="geometry"/>
        </mxCell>
        <mxCell id="cO2QtpQZ5ImbLDcUa9ss-117" value="ID_PET&lt;br&gt;NOME&lt;br&gt;COR&lt;br&gt;TAMANHO&lt;br&gt;RAÃ‡A&lt;br&gt;*ID_RAÃ‡A&lt;br&gt;*ID_DONO" style="rounded=0;whiteSpace=wrap;html=1;" parent="1" vertex="1">
          <mxGeometry x="1140" y="539" width="120" height="130" as="geometry"/>
        </mxCell>
        <mxCell id="cO2QtpQZ5ImbLDcUa9ss-118" value="RAÃ‡A" style="rounded=0;whiteSpace=wrap;html=1;" parent="1" vertex="1">
          <mxGeometry x="1360" y="499" width="120" height="40" as="geometry"/>
        </mxCell>
        <mxCell id="cO2QtpQZ5ImbLDcUa9ss-119" value="ID_RAÃ‡A&lt;br&gt;TIPO&lt;br&gt;TAMANHO" style="rounded=0;whiteSpace=wrap;html=1;" parent="1" vertex="1">
          <mxGeometry x="1360" y="539" width="120" height="130" as="geometry"/>
        </mxCell>
        <mxCell id="cO2QtpQZ5ImbLDcUa9ss-120" value="DONO" style="rounded=0;whiteSpace=wrap;html=1;" parent="1" vertex="1">
          <mxGeometry x="1580" y="499" width="120" height="40" as="geometry"/>
        </mxCell>
        <mxCell id="cO2QtpQZ5ImbLDcUa9ss-121" value="ID_DONO&lt;br&gt;NOME&lt;br&gt;IDADE&lt;br&gt;NOME_PET" style="rounded=0;whiteSpace=wrap;html=1;" parent="1" vertex="1">
          <mxGeometry x="1580" y="539" width="120" height="130" as="geometry"/>
        </mxCell>
        <mxCell id="cO2QtpQZ5ImbLDcUa9ss-122" value="VETERINARIO" style="rounded=0;whiteSpace=wrap;html=1;" parent="1" vertex="1">
          <mxGeometry x="1790" y="499" width="120" height="40" as="geometry"/>
        </mxCell>
        <mxCell id="cO2QtpQZ5ImbLDcUa9ss-123" value="ID_VETERINARIO&lt;br&gt;NOME&lt;br&gt;IDADE&lt;br&gt;CRV&lt;br&gt;*ID_CLINICA&lt;br&gt;*ID_PET" style="rounded=0;whiteSpace=wrap;html=1;" parent="1" vertex="1">
          <mxGeometry x="1790" y="539" width="120" height="130" as="geometry"/>
        </mxCell>
        <mxCell id="cO2QtpQZ5ImbLDcUa9ss-124" value="OPTIMUS" style="rounded=0;whiteSpace=wrap;html=1;" parent="1" vertex="1">
          <mxGeometry x="1221" y="1253" width="120" height="40" as="geometry"/>
        </mxCell>
        <mxCell id="cO2QtpQZ5ImbLDcUa9ss-125" value="ID_OPTIMUS&lt;br&gt;NOME&lt;br&gt;ENDEREÃ‡O&lt;br&gt;CNPJ&lt;br&gt;TELEFONE" style="rounded=0;whiteSpace=wrap;html=1;" parent="1" vertex="1">
          <mxGeometry x="1221" y="1293" width="120" height="130" as="geometry"/>
        </mxCell>
        <mxCell id="cO2QtpQZ5ImbLDcUa9ss-126" value="ARTISTAS" style="rounded=0;whiteSpace=wrap;html=1;" parent="1" vertex="1">
          <mxGeometry x="1411" y="1253" width="120" height="40" as="geometry"/>
        </mxCell>
        <mxCell id="cO2QtpQZ5ImbLDcUa9ss-127" value="ID_ARTISTAS&lt;br&gt;NOME&lt;br&gt;GÃŠNERO&lt;br&gt;IDADE&lt;br&gt;*ID_ESTILOMUSICAL" style="rounded=0;whiteSpace=wrap;html=1;" parent="1" vertex="1">
          <mxGeometry x="1411" y="1293" width="120" height="130" as="geometry"/>
        </mxCell>
        <mxCell id="cO2QtpQZ5ImbLDcUa9ss-128" value="CDS" style="rounded=0;whiteSpace=wrap;html=1;" parent="1" vertex="1">
          <mxGeometry x="1611" y="1253" width="120" height="40" as="geometry"/>
        </mxCell>
        <mxCell id="cO2QtpQZ5ImbLDcUa9ss-129" value="ID_CDS&lt;br&gt;NOME&lt;br&gt;*ID_ALBUM" style="rounded=0;whiteSpace=wrap;html=1;" parent="1" vertex="1">
          <mxGeometry x="1611" y="1293" width="120" height="130" as="geometry"/>
        </mxCell>
        <mxCell id="cO2QtpQZ5ImbLDcUa9ss-130" value="ALBUM" style="rounded=0;whiteSpace=wrap;html=1;" parent="1" vertex="1">
          <mxGeometry x="1791" y="1253" width="120" height="40" as="geometry"/>
        </mxCell>
        <mxCell id="cO2QtpQZ5ImbLDcUa9ss-131" value="ID_ALBUM&lt;br&gt;NOME&lt;br&gt;*ID_ARTISTAS&lt;br&gt;*ID_CDS&lt;br&gt;TIPO" style="rounded=0;whiteSpace=wrap;html=1;" parent="1" vertex="1">
          <mxGeometry x="1791" y="1293" width="120" height="130" as="geometry"/>
        </mxCell>
        <mxCell id="cO2QtpQZ5ImbLDcUa9ss-134" value="ESTILO MUSICAL" style="rounded=0;whiteSpace=wrap;html=1;" parent="1" vertex="1">
          <mxGeometry x="1971" y="1253" width="120" height="40" as="geometry"/>
        </mxCell>
        <mxCell id="cO2QtpQZ5ImbLDcUa9ss-135" value="ID_ESTILOMUSICAL&lt;br&gt;TIPO&lt;br&gt;" style="rounded=0;whiteSpace=wrap;html=1;" parent="1" vertex="1">
          <mxGeometry x="1971" y="1293" width="120" height="130" as="geometry"/>
        </mxCell>
        <mxCell id="cO2QtpQZ5ImbLDcUa9ss-138" value="PLATAFORMA" style="rounded=0;whiteSpace=wrap;html=1;" parent="1" vertex="1">
          <mxGeometry x="2151" y="1253" width="120" height="40" as="geometry"/>
        </mxCell>
        <mxCell id="cO2QtpQZ5ImbLDcUa9ss-139" value="ID_CLINICA&lt;br&gt;CNPJ&lt;br&gt;TELEFONE&lt;br&gt;NOMECLINICA&lt;br&gt;ENDEREÃ‡O&lt;br&gt;*ID_USUARIO" style="rounded=0;whiteSpace=wrap;html=1;" parent="1" vertex="1">
          <mxGeometry x="2151" y="1293" width="120" height="130" as="geometry"/>
        </mxCell>
        <mxCell id="cO2QtpQZ5ImbLDcUa9ss-140" value="" style="endArrow=none;html=1;entryX=1;entryY=0.5;entryDx=0;entryDy=0;exitX=0;exitY=0.5;exitDx=0;exitDy=0;" parent="1" source="cO2QtpQZ5ImbLDcUa9ss-117" target="cO2QtpQZ5ImbLDcUa9ss-115" edge="1">
          <mxGeometry width="50" height="50" relative="1" as="geometry">
            <mxPoint x="1080" y="699" as="sourcePoint"/>
            <mxPoint x="1130" y="649" as="targetPoint"/>
          </mxGeometry>
        </mxCell>
        <mxCell id="cO2QtpQZ5ImbLDcUa9ss-141" value="" style="endArrow=none;html=1;entryX=0;entryY=0.5;entryDx=0;entryDy=0;exitX=1;exitY=0.5;exitDx=0;exitDy=0;" parent="1" source="cO2QtpQZ5ImbLDcUa9ss-117" target="cO2QtpQZ5ImbLDcUa9ss-119" edge="1">
          <mxGeometry width="50" height="50" relative="1" as="geometry">
            <mxPoint x="1260" y="809" as="sourcePoint"/>
            <mxPoint x="1310" y="759" as="targetPoint"/>
          </mxGeometry>
        </mxCell>
        <mxCell id="cO2QtpQZ5ImbLDcUa9ss-142" value="" style="endArrow=none;html=1;entryX=0;entryY=0.5;entryDx=0;entryDy=0;exitX=1;exitY=0.5;exitDx=0;exitDy=0;" parent="1" source="cO2QtpQZ5ImbLDcUa9ss-119" target="cO2QtpQZ5ImbLDcUa9ss-121" edge="1">
          <mxGeometry width="50" height="50" relative="1" as="geometry">
            <mxPoint x="1370" y="839" as="sourcePoint"/>
            <mxPoint x="1420" y="789" as="targetPoint"/>
          </mxGeometry>
        </mxCell>
        <mxCell id="cO2QtpQZ5ImbLDcUa9ss-143" value="" style="endArrow=none;html=1;entryX=0;entryY=0.5;entryDx=0;entryDy=0;exitX=1;exitY=0.5;exitDx=0;exitDy=0;" parent="1" source="cO2QtpQZ5ImbLDcUa9ss-121" target="cO2QtpQZ5ImbLDcUa9ss-123" edge="1">
          <mxGeometry width="50" height="50" relative="1" as="geometry">
            <mxPoint x="1650" y="799" as="sourcePoint"/>
            <mxPoint x="1700" y="749" as="targetPoint"/>
          </mxGeometry>
        </mxCell>
        <mxCell id="cO2QtpQZ5ImbLDcUa9ss-144" value="USUARIO" style="rounded=0;whiteSpace=wrap;html=1;" parent="1" vertex="1">
          <mxGeometry x="2341" y="1253" width="120" height="40" as="geometry"/>
        </mxCell>
        <mxCell id="cO2QtpQZ5ImbLDcUa9ss-145" value="ID_USUARIO&lt;br&gt;NOME&lt;br&gt;IDADE&lt;br&gt;*ID_ESTILO MUSICAL&lt;br&gt;GÃŠNERO&lt;br&gt;*ID_ALBUM" style="rounded=0;whiteSpace=wrap;html=1;" parent="1" vertex="1">
          <mxGeometry x="2341" y="1293" width="120" height="130" as="geometry"/>
        </mxCell>
        <mxCell id="cO2QtpQZ5ImbLDcUa9ss-146" value="" style="endArrow=none;html=1;entryX=0;entryY=0.5;entryDx=0;entryDy=0;" parent="1" source="cO2QtpQZ5ImbLDcUa9ss-125" target="cO2QtpQZ5ImbLDcUa9ss-127" edge="1">
          <mxGeometry width="50" height="50" relative="1" as="geometry">
            <mxPoint x="1321" y="1493" as="sourcePoint"/>
            <mxPoint x="1371" y="1443" as="targetPoint"/>
          </mxGeometry>
        </mxCell>
        <mxCell id="cO2QtpQZ5ImbLDcUa9ss-147" value="" style="endArrow=none;html=1;entryX=0;entryY=0.5;entryDx=0;entryDy=0;exitX=1;exitY=0.5;exitDx=0;exitDy=0;" parent="1" source="cO2QtpQZ5ImbLDcUa9ss-127" target="cO2QtpQZ5ImbLDcUa9ss-129" edge="1">
          <mxGeometry width="50" height="50" relative="1" as="geometry">
            <mxPoint x="1431" y="1623" as="sourcePoint"/>
            <mxPoint x="1481" y="1573" as="targetPoint"/>
          </mxGeometry>
        </mxCell>
        <mxCell id="cO2QtpQZ5ImbLDcUa9ss-148" value="" style="endArrow=none;html=1;entryX=0;entryY=0.5;entryDx=0;entryDy=0;exitX=1;exitY=0.5;exitDx=0;exitDy=0;" parent="1" source="cO2QtpQZ5ImbLDcUa9ss-129" target="cO2QtpQZ5ImbLDcUa9ss-131" edge="1">
          <mxGeometry width="50" height="50" relative="1" as="geometry">
            <mxPoint x="1691" y="1533" as="sourcePoint"/>
            <mxPoint x="1741" y="1483" as="targetPoint"/>
          </mxGeometry>
        </mxCell>
        <mxCell id="cO2QtpQZ5ImbLDcUa9ss-149" value="" style="endArrow=none;html=1;entryX=0;entryY=0.5;entryDx=0;entryDy=0;exitX=1;exitY=0.5;exitDx=0;exitDy=0;" parent="1" source="cO2QtpQZ5ImbLDcUa9ss-131" target="cO2QtpQZ5ImbLDcUa9ss-135" edge="1">
          <mxGeometry width="50" height="50" relative="1" as="geometry">
            <mxPoint x="1881" y="1583" as="sourcePoint"/>
            <mxPoint x="1931" y="1533" as="targetPoint"/>
          </mxGeometry>
        </mxCell>
        <mxCell id="cO2QtpQZ5ImbLDcUa9ss-150" value="" style="endArrow=none;html=1;entryX=0;entryY=0.5;entryDx=0;entryDy=0;exitX=1;exitY=0.5;exitDx=0;exitDy=0;" parent="1" source="cO2QtpQZ5ImbLDcUa9ss-135" target="cO2QtpQZ5ImbLDcUa9ss-139" edge="1">
          <mxGeometry width="50" height="50" relative="1" as="geometry">
            <mxPoint x="1911" y="1623" as="sourcePoint"/>
            <mxPoint x="1961" y="1573" as="targetPoint"/>
          </mxGeometry>
        </mxCell>
        <mxCell id="cO2QtpQZ5ImbLDcUa9ss-151" value="" style="endArrow=none;html=1;entryX=0;entryY=0.5;entryDx=0;entryDy=0;exitX=1;exitY=0.5;exitDx=0;exitDy=0;" parent="1" source="cO2QtpQZ5ImbLDcUa9ss-139" target="cO2QtpQZ5ImbLDcUa9ss-145" edge="1">
          <mxGeometry width="50" height="50" relative="1" as="geometry">
            <mxPoint x="2261" y="1523" as="sourcePoint"/>
            <mxPoint x="2311" y="1473" as="targetPoint"/>
          </mxGeometry>
        </mxCell>
        <mxCell id="GLImsskMDzlD9o3NskIk-1" value="CORREÃ‡ÃƒO" style="rounded=0;whiteSpace=wrap;html=1;fillColor=#dae8fc;strokeColor=#6c8ebf;strokeWidth=4;" vertex="1" parent="1">
          <mxGeometry x="100" y="1990" width="660" height="60" as="geometry"/>
        </mxCell>
        <mxCell id="GLImsskMDzlD9o3NskIk-2" value="ARTISTAS" style="rounded=0;whiteSpace=wrap;html=1;" vertex="1" parent="1">
          <mxGeometry x="84" y="2180" width="120" height="60" as="geometry"/>
        </mxCell>
        <mxCell id="GLImsskMDzlD9o3NskIk-3" value="POSSUI" style="rhombus;whiteSpace=wrap;html=1;" vertex="1" parent="1">
          <mxGeometry x="350" y="2170" width="80" height="80" as="geometry"/>
        </mxCell>
        <mxCell id="GLImsskMDzlD9o3NskIk-4" value="ALBUM" style="rounded=0;whiteSpace=wrap;html=1;" vertex="1" parent="1">
          <mxGeometry x="580" y="2180" width="120" height="60" as="geometry"/>
        </mxCell>
        <mxCell id="GLImsskMDzlD9o3NskIk-5" value="" style="endArrow=none;html=1;entryX=0;entryY=0.5;entryDx=0;entryDy=0;exitX=1;exitY=0.5;exitDx=0;exitDy=0;" edge="1" parent="1" source="GLImsskMDzlD9o3NskIk-2" target="GLImsskMDzlD9o3NskIk-3">
          <mxGeometry width="50" height="50" relative="1" as="geometry">
            <mxPoint x="80" y="2320" as="sourcePoint"/>
            <mxPoint x="130" y="2270" as="targetPoint"/>
          </mxGeometry>
        </mxCell>
        <mxCell id="GLImsskMDzlD9o3NskIk-6" value="" style="endArrow=none;html=1;entryX=0;entryY=0.5;entryDx=0;entryDy=0;exitX=1;exitY=0.5;exitDx=0;exitDy=0;" edge="1" parent="1" source="GLImsskMDzlD9o3NskIk-3" target="GLImsskMDzlD9o3NskIk-4">
          <mxGeometry width="50" height="50" relative="1" as="geometry">
            <mxPoint x="460" y="2290" as="sourcePoint"/>
            <mxPoint x="510" y="2240" as="targetPoint"/>
          </mxGeometry>
        </mxCell>
        <mxCell id="GLImsskMDzlD9o3NskIk-7" value="N" style="text;html=1;strokeColor=none;fillColor=none;align=center;verticalAlign=middle;whiteSpace=wrap;rounded=0;" vertex="1" parent="1">
          <mxGeometry x="517" y="2170" width="40" height="20" as="geometry"/>
        </mxCell>
        <mxCell id="GLImsskMDzlD9o3NskIk-8" value="1" style="text;html=1;strokeColor=none;fillColor=none;align=center;verticalAlign=middle;whiteSpace=wrap;rounded=0;" vertex="1" parent="1">
          <mxGeometry x="210" y="2170" width="40" height="20" as="geometry"/>
        </mxCell>
        <mxCell id="GLImsskMDzlD9o3NskIk-9" value="POSSUI" style="rhombus;whiteSpace=wrap;html=1;" vertex="1" parent="1">
          <mxGeometry x="840" y="2170" width="80" height="80" as="geometry"/>
        </mxCell>
        <mxCell id="GLImsskMDzlD9o3NskIk-10" value="ESTILO" style="rounded=0;whiteSpace=wrap;html=1;" vertex="1" parent="1">
          <mxGeometry x="1060" y="2180" width="120" height="60" as="geometry"/>
        </mxCell>
        <mxCell id="GLImsskMDzlD9o3NskIk-11" value="" style="endArrow=none;html=1;entryX=0;entryY=0.5;entryDx=0;entryDy=0;exitX=1;exitY=0.5;exitDx=0;exitDy=0;" edge="1" parent="1" source="GLImsskMDzlD9o3NskIk-4" target="GLImsskMDzlD9o3NskIk-9">
          <mxGeometry width="50" height="50" relative="1" as="geometry">
            <mxPoint x="700" y="2320" as="sourcePoint"/>
            <mxPoint x="750" y="2270" as="targetPoint"/>
          </mxGeometry>
        </mxCell>
        <mxCell id="GLImsskMDzlD9o3NskIk-12" value="" style="endArrow=none;html=1;entryX=0;entryY=0.5;entryDx=0;entryDy=0;exitX=1;exitY=0.5;exitDx=0;exitDy=0;" edge="1" parent="1" source="GLImsskMDzlD9o3NskIk-9" target="GLImsskMDzlD9o3NskIk-10">
          <mxGeometry width="50" height="50" relative="1" as="geometry">
            <mxPoint x="950" y="2300" as="sourcePoint"/>
            <mxPoint x="1000" y="2250" as="targetPoint"/>
          </mxGeometry>
        </mxCell>
        <mxCell id="GLImsskMDzlD9o3NskIk-13" value="N" style="text;html=1;strokeColor=none;fillColor=none;align=center;verticalAlign=middle;whiteSpace=wrap;rounded=0;" vertex="1" parent="1">
          <mxGeometry x="717" y="2180" width="40" height="20" as="geometry"/>
        </mxCell>
        <mxCell id="GLImsskMDzlD9o3NskIk-14" value="N" style="text;html=1;strokeColor=none;fillColor=none;align=center;verticalAlign=middle;whiteSpace=wrap;rounded=0;" vertex="1" parent="1">
          <mxGeometry x="1000" y="2180" width="40" height="20" as="geometry"/>
        </mxCell>
        <mxCell id="GLImsskMDzlD9o3NskIk-15" value="3" style="ellipse;whiteSpace=wrap;html=1;" vertex="1" parent="1">
          <mxGeometry x="42" y="2080" width="58" height="60" as="geometry"/>
        </mxCell>
        <mxCell id="GLImsskMDzlD9o3NskIk-16" value="TIPO USUARIO" style="rounded=0;whiteSpace=wrap;html=1;" vertex="1" parent="1">
          <mxGeometry x="1360" y="2010" width="120" height="60" as="geometry"/>
        </mxCell>
        <mxCell id="GLImsskMDzlD9o3NskIk-17" value="POSSUI" style="rhombus;whiteSpace=wrap;html=1;" vertex="1" parent="1">
          <mxGeometry x="1380" y="2160" width="80" height="80" as="geometry"/>
        </mxCell>
        <mxCell id="GLImsskMDzlD9o3NskIk-18" value="USUARIO" style="rounded=0;whiteSpace=wrap;html=1;" vertex="1" parent="1">
          <mxGeometry x="1611" y="2170" width="120" height="60" as="geometry"/>
        </mxCell>
        <mxCell id="GLImsskMDzlD9o3NskIk-19" value="" style="endArrow=none;html=1;entryX=0.5;entryY=1;entryDx=0;entryDy=0;exitX=0.5;exitY=0;exitDx=0;exitDy=0;" edge="1" parent="1" source="GLImsskMDzlD9o3NskIk-17" target="GLImsskMDzlD9o3NskIk-16">
          <mxGeometry width="50" height="50" relative="1" as="geometry">
            <mxPoint x="1330" y="2240" as="sourcePoint"/>
            <mxPoint x="1380" y="2190" as="targetPoint"/>
          </mxGeometry>
        </mxCell>
        <mxCell id="GLImsskMDzlD9o3NskIk-20" value="" style="endArrow=none;html=1;entryX=0;entryY=0.5;entryDx=0;entryDy=0;exitX=1;exitY=0.5;exitDx=0;exitDy=0;" edge="1" parent="1" source="GLImsskMDzlD9o3NskIk-17" target="GLImsskMDzlD9o3NskIk-18">
          <mxGeometry width="50" height="50" relative="1" as="geometry">
            <mxPoint x="1490" y="2300" as="sourcePoint"/>
            <mxPoint x="1540" y="2250" as="targetPoint"/>
          </mxGeometry>
        </mxCell>
        <mxCell id="GLImsskMDzlD9o3NskIk-21" value="1" style="text;html=1;strokeColor=none;fillColor=none;align=center;verticalAlign=middle;whiteSpace=wrap;rounded=0;" vertex="1" parent="1">
          <mxGeometry x="1440" y="2090" width="40" height="20" as="geometry"/>
        </mxCell>
        <mxCell id="GLImsskMDzlD9o3NskIk-22" value="N" style="text;html=1;strokeColor=none;fillColor=none;align=center;verticalAlign=middle;whiteSpace=wrap;rounded=0;" vertex="1" parent="1">
          <mxGeometry x="1560" y="2170" width="40" height="20" as="geometry"/>
        </mxCell>
        <mxCell id="GLImsskMDzlD9o3NskIk-25" value="2" style="ellipse;whiteSpace=wrap;html=1;" vertex="1" parent="1">
          <mxGeometry x="42" y="2350" width="58" height="60" as="geometry"/>
        </mxCell>
        <mxCell id="GLImsskMDzlD9o3NskIk-27" value="CLINICA" style="rounded=0;whiteSpace=wrap;html=1;" vertex="1" parent="1">
          <mxGeometry x="64" y="2460" width="120" height="60" as="geometry"/>
        </mxCell>
        <mxCell id="GLImsskMDzlD9o3NskIk-28" value="DONO" style="rounded=0;whiteSpace=wrap;html=1;" vertex="1" parent="1">
          <mxGeometry x="271" y="2460" width="120" height="60" as="geometry"/>
        </mxCell>
        <mxCell id="GLImsskMDzlD9o3NskIk-29" value="RAÃ‡A" style="rounded=0;whiteSpace=wrap;html=1;" vertex="1" parent="1">
          <mxGeometry x="667" y="2740" width="120" height="60" as="geometry"/>
        </mxCell>
        <mxCell id="GLImsskMDzlD9o3NskIk-30" value="POSSUI" style="rhombus;whiteSpace=wrap;html=1;" vertex="1" parent="1">
          <mxGeometry x="84" y="2590" width="80" height="80" as="geometry"/>
        </mxCell>
        <mxCell id="GLImsskMDzlD9o3NskIk-31" value="POSSUI" style="rhombus;whiteSpace=wrap;html=1;" vertex="1" parent="1">
          <mxGeometry x="84" y="2950" width="80" height="80" as="geometry"/>
        </mxCell>
        <mxCell id="GLImsskMDzlD9o3NskIk-32" value="VETERINARIO" style="rounded=0;whiteSpace=wrap;html=1;" vertex="1" parent="1">
          <mxGeometry x="64" y="2740" width="120" height="60" as="geometry"/>
        </mxCell>
        <mxCell id="GLImsskMDzlD9o3NskIk-35" value="" style="endArrow=none;html=1;entryX=0.5;entryY=1;entryDx=0;entryDy=0;exitX=0.5;exitY=0;exitDx=0;exitDy=0;" edge="1" parent="1" source="GLImsskMDzlD9o3NskIk-30" target="GLImsskMDzlD9o3NskIk-27">
          <mxGeometry width="50" height="50" relative="1" as="geometry">
            <mxPoint x="60" y="2610" as="sourcePoint"/>
            <mxPoint x="110" y="2560" as="targetPoint"/>
          </mxGeometry>
        </mxCell>
        <mxCell id="GLImsskMDzlD9o3NskIk-36" value="" style="endArrow=none;html=1;entryX=0.5;entryY=1;entryDx=0;entryDy=0;exitX=0.5;exitY=0;exitDx=0;exitDy=0;" edge="1" parent="1" source="GLImsskMDzlD9o3NskIk-32" target="GLImsskMDzlD9o3NskIk-30">
          <mxGeometry width="50" height="50" relative="1" as="geometry">
            <mxPoint x="90" y="2750" as="sourcePoint"/>
            <mxPoint x="130" y="2690" as="targetPoint"/>
          </mxGeometry>
        </mxCell>
        <mxCell id="GLImsskMDzlD9o3NskIk-37" value="1" style="text;html=1;strokeColor=none;fillColor=none;align=center;verticalAlign=middle;whiteSpace=wrap;rounded=0;" vertex="1" parent="1">
          <mxGeometry x="140" y="2530" width="40" height="20" as="geometry"/>
        </mxCell>
        <mxCell id="GLImsskMDzlD9o3NskIk-38" value="N" style="text;html=1;strokeColor=none;fillColor=none;align=center;verticalAlign=middle;whiteSpace=wrap;rounded=0;" vertex="1" parent="1">
          <mxGeometry x="140" y="2710" width="40" height="20" as="geometry"/>
        </mxCell>
        <mxCell id="GLImsskMDzlD9o3NskIk-39" value="ATENDIMENTO" style="rounded=0;whiteSpace=wrap;html=1;" vertex="1" parent="1">
          <mxGeometry x="270" y="2960" width="120" height="60" as="geometry"/>
        </mxCell>
        <mxCell id="GLImsskMDzlD9o3NskIk-40" value="" style="endArrow=none;html=1;entryX=0.5;entryY=1;entryDx=0;entryDy=0;exitX=0.5;exitY=0;exitDx=0;exitDy=0;" edge="1" parent="1" source="GLImsskMDzlD9o3NskIk-31" target="GLImsskMDzlD9o3NskIk-32">
          <mxGeometry width="50" height="50" relative="1" as="geometry">
            <mxPoint x="110" y="2890" as="sourcePoint"/>
            <mxPoint x="160" y="2840" as="targetPoint"/>
          </mxGeometry>
        </mxCell>
        <mxCell id="GLImsskMDzlD9o3NskIk-41" value="" style="endArrow=none;html=1;entryX=0;entryY=0.5;entryDx=0;entryDy=0;exitX=1;exitY=0.5;exitDx=0;exitDy=0;" edge="1" parent="1" source="GLImsskMDzlD9o3NskIk-31" target="GLImsskMDzlD9o3NskIk-39">
          <mxGeometry width="50" height="50" relative="1" as="geometry">
            <mxPoint x="170" y="3100" as="sourcePoint"/>
            <mxPoint x="220" y="3050" as="targetPoint"/>
          </mxGeometry>
        </mxCell>
        <mxCell id="GLImsskMDzlD9o3NskIk-42" value="1" style="text;html=1;strokeColor=none;fillColor=none;align=center;verticalAlign=middle;whiteSpace=wrap;rounded=0;" vertex="1" parent="1">
          <mxGeometry x="130" y="2810" width="40" height="20" as="geometry"/>
        </mxCell>
        <mxCell id="GLImsskMDzlD9o3NskIk-43" value="N" style="text;html=1;strokeColor=none;fillColor=none;align=center;verticalAlign=middle;whiteSpace=wrap;rounded=0;" vertex="1" parent="1">
          <mxGeometry x="220" y="2960" width="40" height="20" as="geometry"/>
        </mxCell>
        <mxCell id="GLImsskMDzlD9o3NskIk-44" value="DONO" style="rounded=0;whiteSpace=wrap;html=1;" vertex="1" parent="1">
          <mxGeometry x="270" y="2740" width="120" height="60" as="geometry"/>
        </mxCell>
        <mxCell id="GLImsskMDzlD9o3NskIk-46" value="POSSUI" style="rhombus;whiteSpace=wrap;html=1;" vertex="1" parent="1">
          <mxGeometry x="290" y="2840" width="80" height="80" as="geometry"/>
        </mxCell>
        <mxCell id="GLImsskMDzlD9o3NskIk-47" value="" style="endArrow=none;html=1;entryX=0.5;entryY=1;entryDx=0;entryDy=0;exitX=0.5;exitY=0;exitDx=0;exitDy=0;" edge="1" parent="1" source="GLImsskMDzlD9o3NskIk-46" target="GLImsskMDzlD9o3NskIk-44">
          <mxGeometry width="50" height="50" relative="1" as="geometry">
            <mxPoint x="450" y="2910" as="sourcePoint"/>
            <mxPoint x="500" y="2860" as="targetPoint"/>
          </mxGeometry>
        </mxCell>
        <mxCell id="GLImsskMDzlD9o3NskIk-48" value="" style="endArrow=none;html=1;entryX=0.5;entryY=0;entryDx=0;entryDy=0;exitX=0.5;exitY=1;exitDx=0;exitDy=0;" edge="1" parent="1" source="GLImsskMDzlD9o3NskIk-46" target="GLImsskMDzlD9o3NskIk-39">
          <mxGeometry width="50" height="50" relative="1" as="geometry">
            <mxPoint x="340" y="2850" as="sourcePoint"/>
            <mxPoint x="340" y="2810" as="targetPoint"/>
          </mxGeometry>
        </mxCell>
        <mxCell id="GLImsskMDzlD9o3NskIk-49" value="POSSUI" style="rhombus;whiteSpace=wrap;html=1;" vertex="1" parent="1">
          <mxGeometry x="291" y="2590" width="80" height="80" as="geometry"/>
        </mxCell>
        <mxCell id="GLImsskMDzlD9o3NskIk-50" value="" style="endArrow=none;html=1;entryX=0.5;entryY=1;entryDx=0;entryDy=0;exitX=0.5;exitY=0;exitDx=0;exitDy=0;" edge="1" parent="1" source="GLImsskMDzlD9o3NskIk-49" target="GLImsskMDzlD9o3NskIk-28">
          <mxGeometry width="50" height="50" relative="1" as="geometry">
            <mxPoint x="421" y="2650" as="sourcePoint"/>
            <mxPoint x="471" y="2600" as="targetPoint"/>
          </mxGeometry>
        </mxCell>
        <mxCell id="GLImsskMDzlD9o3NskIk-51" value="" style="endArrow=none;html=1;entryX=0.5;entryY=1;entryDx=0;entryDy=0;exitX=0.5;exitY=0;exitDx=0;exitDy=0;" edge="1" parent="1" source="GLImsskMDzlD9o3NskIk-44" target="GLImsskMDzlD9o3NskIk-49">
          <mxGeometry width="50" height="50" relative="1" as="geometry">
            <mxPoint x="470" y="2780" as="sourcePoint"/>
            <mxPoint x="520" y="2730" as="targetPoint"/>
          </mxGeometry>
        </mxCell>
        <mxCell id="GLImsskMDzlD9o3NskIk-52" value="POSSUI" style="rhombus;whiteSpace=wrap;html=1;" vertex="1" parent="1">
          <mxGeometry x="502" y="2730" width="80" height="80" as="geometry"/>
        </mxCell>
        <mxCell id="GLImsskMDzlD9o3NskIk-53" value="" style="endArrow=none;html=1;entryX=0;entryY=0.5;entryDx=0;entryDy=0;exitX=1;exitY=0.5;exitDx=0;exitDy=0;" edge="1" parent="1" source="GLImsskMDzlD9o3NskIk-44" target="GLImsskMDzlD9o3NskIk-52">
          <mxGeometry width="50" height="50" relative="1" as="geometry">
            <mxPoint x="430" y="2890" as="sourcePoint"/>
            <mxPoint x="480" y="2840" as="targetPoint"/>
          </mxGeometry>
        </mxCell>
        <mxCell id="GLImsskMDzlD9o3NskIk-54" value="" style="endArrow=none;html=1;entryX=0;entryY=0.5;entryDx=0;entryDy=0;exitX=1;exitY=0.5;exitDx=0;exitDy=0;" edge="1" parent="1" source="GLImsskMDzlD9o3NskIk-52" target="GLImsskMDzlD9o3NskIk-29">
          <mxGeometry width="50" height="50" relative="1" as="geometry">
            <mxPoint x="490" y="2930" as="sourcePoint"/>
            <mxPoint x="540" y="2880" as="targetPoint"/>
          </mxGeometry>
        </mxCell>
        <mxCell id="GLImsskMDzlD9o3NskIk-55" value="TIPOPET" style="rounded=0;whiteSpace=wrap;html=1;" vertex="1" parent="1">
          <mxGeometry x="668" y="2460" width="120" height="60" as="geometry"/>
        </mxCell>
        <mxCell id="GLImsskMDzlD9o3NskIk-56" value="N" style="text;html=1;strokeColor=none;fillColor=none;align=center;verticalAlign=middle;whiteSpace=wrap;rounded=0;" vertex="1" parent="1">
          <mxGeometry x="336" y="2933" width="40" height="20" as="geometry"/>
        </mxCell>
        <mxCell id="GLImsskMDzlD9o3NskIk-57" value="1" style="text;html=1;strokeColor=none;fillColor=none;align=center;verticalAlign=middle;whiteSpace=wrap;rounded=0;" vertex="1" parent="1">
          <mxGeometry x="336" y="2810" width="40" height="20" as="geometry"/>
        </mxCell>
        <mxCell id="GLImsskMDzlD9o3NskIk-58" value="N" style="text;html=1;strokeColor=none;fillColor=none;align=center;verticalAlign=middle;whiteSpace=wrap;rounded=0;" vertex="1" parent="1">
          <mxGeometry x="398" y="2740" width="40" height="20" as="geometry"/>
        </mxCell>
        <mxCell id="GLImsskMDzlD9o3NskIk-59" value="1" style="text;html=1;strokeColor=none;fillColor=none;align=center;verticalAlign=middle;whiteSpace=wrap;rounded=0;" vertex="1" parent="1">
          <mxGeometry x="613" y="2740" width="40" height="20" as="geometry"/>
        </mxCell>
        <mxCell id="GLImsskMDzlD9o3NskIk-60" value="1" style="text;html=1;strokeColor=none;fillColor=none;align=center;verticalAlign=middle;whiteSpace=wrap;rounded=0;" vertex="1" parent="1">
          <mxGeometry x="336" y="2530" width="40" height="20" as="geometry"/>
        </mxCell>
        <mxCell id="GLImsskMDzlD9o3NskIk-61" value="N" style="text;html=1;strokeColor=none;fillColor=none;align=center;verticalAlign=middle;whiteSpace=wrap;rounded=0;" vertex="1" parent="1">
          <mxGeometry x="336" y="2710" width="40" height="20" as="geometry"/>
        </mxCell>
        <mxCell id="GLImsskMDzlD9o3NskIk-62" value="POSSUI" style="rhombus;whiteSpace=wrap;html=1;" vertex="1" parent="1">
          <mxGeometry x="687" y="2580" width="80" height="80" as="geometry"/>
        </mxCell>
        <mxCell id="GLImsskMDzlD9o3NskIk-63" value="" style="endArrow=none;html=1;entryX=0.5;entryY=0;entryDx=0;entryDy=0;exitX=0.5;exitY=1;exitDx=0;exitDy=0;" edge="1" parent="1" source="GLImsskMDzlD9o3NskIk-55" target="GLImsskMDzlD9o3NskIk-62">
          <mxGeometry width="50" height="50" relative="1" as="geometry">
            <mxPoint x="550" y="2640" as="sourcePoint"/>
            <mxPoint x="600" y="2590" as="targetPoint"/>
          </mxGeometry>
        </mxCell>
        <mxCell id="GLImsskMDzlD9o3NskIk-64" value="" style="endArrow=none;html=1;entryX=0.5;entryY=1;entryDx=0;entryDy=0;exitX=0.5;exitY=0;exitDx=0;exitDy=0;" edge="1" parent="1" source="GLImsskMDzlD9o3NskIk-29" target="GLImsskMDzlD9o3NskIk-62">
          <mxGeometry width="50" height="50" relative="1" as="geometry">
            <mxPoint x="590" y="2730" as="sourcePoint"/>
            <mxPoint x="640" y="2680" as="targetPoint"/>
          </mxGeometry>
        </mxCell>
        <mxCell id="GLImsskMDzlD9o3NskIk-65" value="N" style="text;html=1;strokeColor=none;fillColor=none;align=center;verticalAlign=middle;whiteSpace=wrap;rounded=0;" vertex="1" parent="1">
          <mxGeometry x="732" y="2710" width="40" height="20" as="geometry"/>
        </mxCell>
        <mxCell id="GLImsskMDzlD9o3NskIk-66" value="1" style="text;html=1;strokeColor=none;fillColor=none;align=center;verticalAlign=middle;whiteSpace=wrap;rounded=0;" vertex="1" parent="1">
          <mxGeometry x="740" y="2530" width="40" height="20" as="geometry"/>
        </mxCell>
      </root>
    </mxGraphModel>
  </diagram>
</mxfile>
